PathFileType	4	(X/Y/Z)	c:/Users/goper/Files/vsCode/490R/osim_files/C05/C05_SSWS_06.trc
DataRate	CameraRate	NumFrames	NumMarkers	Units                	OrigDataRate	OrigDataStartFrame	OrigNumFrames
250.00	250.00	11	36	mm	250.0	3206	3663
                Frame#	Time	LPSIS			LASIS			LTH1			LTH2			LTH3			LTH4			LLFE			LMFE			LSH1			LSH2			LSH3			LSH4			LLMAL			LMMAL			LCAL			LMTP5			LTOE			LMTP1			RPSIS			RASIS			RTH1			RTH2			RTH3			RTH4			RLFE			RMFE			RSH1			RSH2			RSH3			RSH4			RLMAL			RMMAL			RCAL			RMTP1			RTOE			RMTP5		
		X1	Y1	Z1	X2	Y2	Z2	X3	Y3	Z3	X4	Y4	Z4	X5	Y5	Z5	X6	Y6	Z6	X7	Y7	Z7	X8	Y8	Z8	X9	Y9	Z9	X10	Y10	Z10	X11	Y11	Z11	X12	Y12	Z12	X13	Y13	Z13	X14	Y14	Z14	X15	Y15	Z15	X16	Y16	Z16	X17	Y17	Z17	X18	Y18	Z18	X19	Y19	Z19	X20	Y20	Z20	X21	Y21	Z21	X22	Y22	Z22	X23	Y23	Z23	X24	Y24	Z24	X25	Y25	Z25	X26	Y26	Z26	X27	Y27	Z27	X28	Y28	Z28	X29	Y29	Z29	X30	Y30	Z30	X31	Y31	Z31	X32	Y32	Z32	X33	Y33	Z33	X34	Y34	Z34	X35	Y35	Z35	X36	Y36	Z36

3206	12.82000	0.00000	0.00000	0.00000	-3662.18677	998.31067	284.17929	-3484.79907	705.67468	332.46057	0.00000	0.00000	0.00000	0.00000	0.00000	0.00000	-3542.55640	634.70624	307.34351	-3484.84229	532.99634	292.22729	-3471.81665	533.81079	176.07281	-3334.97900	398.63989	303.93985	-3322.56421	356.44067	297.45074	-3394.13403	371.01724	306.87186	-3372.53198	335.25839	299.11542	-3258.45630	135.88843	258.58807	-3285.31177	142.87906	175.02640	-3192.37061	118.00605	211.80029	0.00000	0.00000	0.00000	-3422.37280	70.92724	224.01779	-3407.44629	62.46790	174.86623	0.00000	0.00000	0.00000	-3669.78882	1007.79559	56.44761	0.00000	0.00000	0.00000	0.00000	0.00000	0.00000	-3732.56274	697.38654	-20.32228	0.00000	0.00000	0.00000	-3783.28442	531.06451	120.88828	-3784.09839	552.77966	10.87220	0.00000	0.00000	0.00000	0.00000	0.00000	0.00000	-3821.77368	402.88037	-4.71383	-3837.56982	358.88657	-1.80751	0.00000	0.00000	0.00000	-3557.23071	693.48785	317.99060	0.00000	0.00000	0.00000	0.00000	0.00000	0.00000	-3659.43408	992.55969	294.87427	0.00000	0.00000	0.00000
3207	12.82400	0.00000	0.00000	0.00000	-3667.15967	997.59857	283.64352	-3489.27612	705.04602	331.62070	0.00000	0.00000	0.00000	0.00000	0.00000	0.00000	-3546.86084	633.98700	306.48434	-3489.03516	532.41162	291.40393	-3476.16260	533.31708	175.40384	-3337.74780	398.88171	303.24500	-3325.27734	356.97696	296.88416	-3399.74634	372.11639	307.15668	-3375.10425	335.47186	298.65768	-3259.75171	136.91461	259.22009	-3286.38916	143.77902	175.12346	0.00000	0.00000	0.00000	0.00000	0.00000	0.00000	-3424.91528	72.55303	223.31512	-3407.57300	62.33593	175.00136	0.00000	0.00000	0.00000	-3675.04688	1007.33868	55.91458	0.00000	0.00000	0.00000	0.00000	0.00000	0.00000	-3738.56714	697.19617	-19.98271	0.00000	0.00000	0.00000	-3789.24951	531.18726	121.27437	-3790.32397	552.60284	11.76639	0.00000	0.00000	0.00000	0.00000	0.00000	0.00000	-3826.88062	402.03925	-3.67866	-3842.04688	357.90604	-0.72715	0.00000	0.00000	0.00000	-3561.65625	692.77588	317.19986	0.00000	0.00000	0.00000	0.00000	0.00000	0.00000	0.00000	0.00000	0.00000	-3664.62817	991.94586	294.24490
3208	12.82800	0.00000	0.00000	0.00000	-3672.02075	996.78510	283.15448	-3493.71021	704.38208	330.73389	0.00000	0.00000	0.00000	0.00000	0.00000	0.00000	-3551.27515	633.30920	305.54849	-3493.40967	531.85175	290.57025	-3480.67700	532.80505	174.67300	-3340.90015	399.45496	302.54663	-3328.22534	357.85541	296.54196	-3398.17017	371.84906	305.56003	-3376.06396	334.84302	297.60980	-3260.34717	138.14352	258.87692	-3287.32007	144.64067	175.20917	0.00000	0.00000	0.00000	0.00000	0.00000	0.00000	-3425.13135	72.39654	223.32791	-3407.77661	62.29429	175.05734	0.00000	0.00000	0.00000	-3680.32007	1006.90900	55.40666	0.00000	0.00000	0.00000	0.00000	0.00000	0.00000	-3744.54321	696.96204	-19.58133	0.00000	0.00000	0.00000	-3794.92139	531.27234	121.65298	-3796.44434	552.39545	12.75305	0.00000	0.00000	0.00000	0.00000	0.00000	0.00000	-3831.80225	401.15656	-2.54724	-3846.56616	357.02301	0.44089	0.00000	0.00000	0.00000	-3566.12500	692.09088	316.33542	0.00000	0.00000	0.00000	0.00000	0.00000	0.00000	0.00000	0.00000	0.00000	-3669.63647	991.29071	293.54752
3209	12.83200	0.00000	0.00000	0.00000	-3677.12744	996.12585	282.65625	-3498.41797	703.83319	329.81885	0.00000	0.00000	0.00000	0.00000	0.00000	0.00000	-3555.75073	632.63123	304.65762	-3497.71118	531.21429	289.69250	-3485.18848	532.17206	173.90106	-3344.04883	400.07285	301.78748	0.00000	0.00000	0.00000	-3401.81104	373.02365	304.36533	-3378.66992	335.06158	297.08612	-3261.61255	139.31895	259.43225	-3288.55298	145.74420	175.30467	-3194.83398	123.10314	212.12903	0.00000	0.00000	0.00000	-3425.30981	72.24062	223.34348	-3407.89111	62.19489	175.16080	0.00000	0.00000	0.00000	-3685.66284	1006.50140	54.90290	0.00000	0.00000	0.00000	0.00000	0.00000	0.00000	-3750.49243	696.65088	-19.17013	0.00000	0.00000	0.00000	-3800.42798	531.29602	122.07663	-3802.52075	552.20331	13.68793	0.00000	0.00000	0.00000	0.00000	0.00000	0.00000	-3836.74170	400.41565	-1.47754	-3851.18896	356.65607	1.49703	0.00000	0.00000	0.00000	-3570.59180	691.35156	315.46133	0.00000	0.00000	0.00000	0.00000	0.00000	0.00000	0.00000	0.00000	0.00000	-3674.82031	990.72546	292.89041
3210	12.83600	0.00000	0.00000	0.00000	-3682.01196	995.33398	282.13232	-3502.94531	703.15662	328.81348	0.00000	0.00000	0.00000	0.00000	0.00000	0.00000	-3560.29419	631.98199	303.69446	-3502.09961	530.56989	288.79718	-3489.94336	531.60266	173.09767	-3347.23560	400.60437	301.06497	0.00000	0.00000	0.00000	-3404.95215	373.11502	303.77234	-3381.58350	335.48010	296.64511	-3261.87598	140.67900	258.83453	-3289.53955	146.66754	175.39235	0.00000	0.00000	0.00000	0.00000	0.00000	0.00000	-3425.42432	72.06811	223.35258	-3408.05566	62.11749	175.24715	-3490.73926	1036.67102	107.16599	-3691.01440	1006.00037	54.34647	0.00000	0.00000	0.00000	0.00000	0.00000	0.00000	-3756.51221	696.41980	-18.79236	0.00000	0.00000	0.00000	-3805.61401	531.23022	122.63276	-3807.85938	551.66321	14.91769	0.00000	0.00000	0.00000	0.00000	0.00000	0.00000	-3841.51001	399.75293	-0.44972	-3855.67578	355.93466	2.62457	0.00000	0.00000	0.00000	-3575.29907	690.74231	314.60724	0.00000	0.00000	0.00000	0.00000	0.00000	0.00000	0.00000	0.00000	0.00000	-3680.11694	990.26105	292.23337
3211	12.84000	0.00000	0.00000	0.00000	-3687.14551	994.68170	281.74152	-3507.69556	702.63269	327.78940	0.00000	0.00000	0.00000	0.00000	0.00000	0.00000	-3564.84863	631.29700	302.77130	-3506.78418	530.07513	287.90085	-3494.69531	530.96173	172.28668	-3350.75977	401.12296	299.54041	-3337.11865	360.08966	294.81445	-3407.42065	372.25623	303.83801	-3384.40112	335.82761	296.09991	-3263.72559	141.86659	259.71222	-3290.71582	147.75188	175.52328	-3196.76123	126.99532	212.31631	0.00000	0.00000	0.00000	-3425.55371	71.87130	223.32907	-3408.17407	62.00930	175.36314	0.00000	0.00000	0.00000	-3696.44287	1005.61542	53.84879	0.00000	0.00000	0.00000	0.00000	0.00000	0.00000	-3762.51953	696.15906	-18.31435	0.00000	0.00000	0.00000	-3810.46118	531.05841	123.27394	-3813.37500	551.44342	15.84544	0.00000	0.00000	0.00000	0.00000	0.00000	0.00000	-3846.26685	399.21393	0.54303	-3860.26709	355.39240	3.67985	0.00000	0.00000	0.00000	-3579.86182	690.02338	313.70596	0.00000	0.00000	0.00000	0.00000	0.00000	0.00000	0.00000	0.00000	0.00000	-3685.25757	989.68774	291.50699
3212	12.84400	0.00000	0.00000	0.00000	-3692.28931	994.09912	281.29318	-3512.29614	701.97516	326.65045	0.00000	0.00000	0.00000	0.00000	0.00000	0.00000	-3569.58789	630.73169	301.83722	-3511.27930	529.39166	286.94333	-3499.52100	530.24048	171.46863	-3354.00439	401.90555	299.60873	0.00000	0.00000	0.00000	-3411.37061	373.50064	302.57986	-3389.16455	337.26294	296.19562	-3264.96484	143.29160	259.87952	-3292.01440	148.93011	175.63751	0.00000	0.00000	0.00000	0.00000	0.00000	0.00000	-3425.56934	71.60227	223.33940	-3408.26367	61.90522	175.45529	0.00000	0.00000	0.00000	-3701.90698	1005.33710	53.37854	0.00000	0.00000	0.00000	0.00000	0.00000	0.00000	-3768.44971	695.88104	-17.79199	0.00000	0.00000	0.00000	-3815.04150	530.77521	124.14124	-3818.75610	551.34381	16.74742	0.00000	0.00000	0.00000	0.00000	0.00000	0.00000	-3851.13867	398.86838	1.38466	-3864.94751	354.99292	4.58660	0.00000	0.00000	0.00000	-3584.54590	689.36334	312.83353	0.00000	0.00000	0.00000	0.00000	0.00000	0.00000	0.00000	0.00000	0.00000	-3690.57935	989.19794	290.79514
3213	12.84800	0.00000	0.00000	0.00000	-3697.24072	993.40247	280.88022	-3517.15088	701.46393	325.55551	0.00000	0.00000	0.00000	0.00000	0.00000	0.00000	-3574.19653	630.04724	300.88388	-3516.12158	528.85736	286.03680	-3504.54468	529.60498	170.59024	-3357.54126	402.60001	298.87863	0.00000	0.00000	0.00000	-3416.30688	374.01501	303.25937	-3390.36304	336.68124	295.09079	-3265.72070	144.28137	260.17258	-3293.25464	149.97850	175.75775	-3198.93604	131.23607	212.55066	-3379.85498	49.40836	287.54703	-3423.26978	69.61325	223.97096	-3408.45166	61.88635	175.48422	0.00000	0.00000	0.00000	-3707.41187	1005.03003	52.94738	0.00000	0.00000	0.00000	0.00000	0.00000	0.00000	-3774.39551	695.60870	-17.23491	0.00000	0.00000	0.00000	-3819.27368	530.35162	125.11633	-3823.94946	551.21136	17.52898	0.00000	0.00000	0.00000	0.00000	0.00000	0.00000	-3856.05640	398.62756	2.24178	-3869.67480	354.65500	5.46199	0.00000	0.00000	0.00000	-3589.22974	688.74225	311.90805	0.00000	0.00000	0.00000	0.00000	0.00000	0.00000	0.00000	0.00000	0.00000	-3695.99463	988.62646	290.06326
3214	12.85200	0.00000	0.00000	0.00000	-3702.48608	992.87872	280.48386	-3522.09058	700.98474	324.39471	0.00000	0.00000	0.00000	0.00000	0.00000	0.00000	-3579.07422	629.52643	299.95895	-3520.74634	528.16895	285.07944	-3509.49927	528.87323	169.83127	-3361.22998	403.33975	298.16229	-3346.95288	362.88083	293.23059	-3417.70483	373.10489	302.11789	-3393.54053	337.20453	294.60452	-3267.13110	145.77054	260.37103	-3294.65039	151.06865	175.92383	-3200.20166	133.49133	212.64462	-3379.95020	49.38213	287.62436	-3423.26685	69.29121	223.97762	-3408.62061	61.82370	175.58098	0.00000	0.00000	0.00000	-3712.89624	1004.74365	52.50275	0.00000	0.00000	0.00000	0.00000	0.00000	0.00000	-3780.37524	695.43378	-16.56175	0.00000	0.00000	0.00000	-3823.16016	529.85828	126.19952	-3828.96655	551.05231	18.17508	0.00000	0.00000	0.00000	0.00000	0.00000	0.00000	-3860.93604	398.37473	2.96664	-3874.42310	354.39130	6.20583	0.00000	0.00000	0.00000	-3594.13770	688.24573	311.04489	0.00000	0.00000	0.00000	0.00000	0.00000	0.00000	0.00000	0.00000	0.00000	-3701.28687	988.14374	289.33398
3215	12.85600	0.00000	0.00000	0.00000	0.00000	0.00000	0.00000	-3526.98853	700.47162	323.21802	0.00000	0.00000	0.00000	0.00000	0.00000	0.00000	-3583.89844	628.89728	299.03488	-3525.81567	527.67224	284.17899	-3514.83203	528.28656	168.98727	-3364.90112	404.08148	297.39807	0.00000	0.00000	0.00000	-3423.24927	374.52905	302.14355	-3398.55396	338.72821	294.71280	-3268.14111	147.52922	260.11279	-3296.25513	152.34967	176.02078	-3201.51318	135.83818	212.64122	-3380.13086	49.39399	287.66785	-3423.30127	68.98654	223.99020	-3408.91113	61.78598	175.59657	-3517.61060	1034.94775	103.46240	-3718.42847	1004.46240	52.08575	0.00000	0.00000	0.00000	0.00000	0.00000	0.00000	-3785.87695	694.59241	-15.57657	0.00000	0.00000	0.00000	-3826.77588	529.38928	127.34929	-3833.91675	550.98785	18.65563	0.00000	0.00000	0.00000	0.00000	0.00000	0.00000	-3865.84741	398.17599	3.67186	-3879.20435	354.18921	6.82625	0.00000	0.00000	0.00000	-3598.95557	687.61987	310.11896	0.00000	0.00000	0.00000	0.00000	0.00000	0.00000	0.00000	0.00000	0.00000	-3706.69238	987.83533	288.54492
3216	12.86000	0.00000	0.00000	0.00000	0.00000	0.00000	0.00000	-3532.03784	699.94043	321.99670	0.00000	0.00000	0.00000	0.00000	0.00000	0.00000	-3588.86353	628.31567	298.12454	-3530.80884	527.07532	283.29608	-3522.91919	529.88605	167.34225	-3368.83398	404.92578	296.73370	0.00000	0.00000	0.00000	-3424.79370	373.61057	300.93799	-3401.93286	339.32596	294.24460	-3269.87915	148.93416	260.65573	-3297.82471	153.61516	176.18958	-3202.97192	138.24829	212.76640	-3380.36328	49.44403	287.74506	-3423.35522	68.67671	223.98508	-3409.24927	61.72625	175.63097	0.00000	0.00000	0.00000	-3724.00977	1004.27643	51.70996	0.00000	0.00000	0.00000	0.00000	0.00000	0.00000	-3791.71387	694.52893	-14.79106	0.00000	0.00000	0.00000	-3830.13354	528.89404	128.50784	-3838.92310	550.98541	19.02811	0.00000	0.00000	0.00000	0.00000	0.00000	0.00000	-3870.76294	397.97269	4.32344	-3883.85645	353.91199	7.44486	0.00000	0.00000	0.00000	-3603.93701	687.03516	309.26300	0.00000	0.00000	0.00000	0.00000	0.00000	0.00000	0.00000	0.00000	0.00000	-3712.29712	987.52386	287.80838
